<?xml version="1.0" encoding="utf-8"?>
<!-- Generator: Adobe Illustrator 22.1.0, SVG Export Plug-In . SVG Version: 6.00 Build 0)  -->
<svg version="1.1" id="_x2014_ŽÓť_x5F_3" xmlns="http://www.w3.org/2000/svg" xmlns:xlink="http://www.w3.org/1999/xlink"
	 x="0px" y="0px" viewBox="0 0 1538.4 1107.9" style="enable-background:new 0 0 1538.4 1107.9;" xml:space="preserve">
<style type="text/css">
	.st0{fill:#FF1515;}
</style>
<path class="st0" d="M795.2,692.3c-16.3-6.3-15.2-10.3-23.6-10.6c-2.5-0.1-5.1,1.9-7.9,1.9h-0.1h-0.1c-2.8,0-5.4-2.1-7.9-1.9
	c-8.4,0.4-7.3,4.3-23.6,10.6c-0.3,0.1-0.2,0.2,0.2,0.2c9.6,8.8,15.6,20.9,31.3,21c15.7-0.1,21.7-12.2,31.3-21
	C795.4,692.5,795.5,692.4,795.2,692.3z"/>
<path d="M673.7,609.9c0.8,29.6,9.8,60.2,24.4,85.9c14.3,25.3,37.4,48.4,68.4,48.3c30.2-0.2,51.7-25,64.6-49.8
	c13.7-26.4,21.6-56.8,22.5-86.6c0.6,30-6.6,61-19.9,87.9c-13,26.3-35.1,51.4-66.6,52.2C702.5,749.4,672.6,662.4,673.7,609.9z
	 M763.7,660.3c-5.8,0-10.7-1.5-10.7-1.5s3.4,5.9,10.7,5.9s10.7-5.9,10.7-5.9S769.4,660.2,763.7,660.3z M744.5,596.8
	c-17.4-12.4-40.6-18.3-61.8-15.3c10.3,2.8,21,4.7,31.4,7.1c5.5,1.5,11.1,2.8,16.6,4.4c2.9,0.9,5.7,1.7,8.6,2.5
	C740.2,595.9,745.9,597.9,744.5,596.8C744.1,596.5,744.9,597.1,744.5,596.8z M738.1,607.5c1.3,1.3,2.5,2.7,3.6,4.1
	c-14.3,5.2-37.2,6.5-48.5-5.6c11.2,9,30.3,7.9,43.4,4.2c-10.7-11.6-29.2-18.2-43.3-8.7C706.4,589.2,727,596.1,738.1,607.5
	C738.9,608.3,737.3,606.7,738.1,607.5z M692.4,607c2.5,2.9,7.6,6.7,19.6,7.8c11.9,1.1,27.6-2.9,29.7-3.2c0,0-9.7,12.8-32.6,12.8
	c-22.5,0-30.1-13.9-30.1-13.9s4.2,2,8.7,0.7C692.1,609.8,692.4,607,692.4,607z M782.8,596.8c17.4-12.4,40.6-18.3,61.8-15.3
	c-10.3,2.8-21,4.7-31.4,7.1c-5.5,1.5-11.1,2.8-16.6,4.4c-2.9,0.9-5.7,1.7-8.6,2.5C787.1,595.9,781.4,597.9,782.8,596.8
	C783.2,596.5,782.4,597.1,782.8,596.8z M789.2,607.5c11.2-11.4,31.7-18.2,44.8-6c-14-9.6-32.6-3-43.3,8.7
	c13.1,3.7,32.2,4.8,43.4-4.2c-11.4,12.2-34.2,10.8-48.5,5.6C786.8,610.2,787.9,608.8,789.2,607.5C790,606.7,788.4,608.3,789.2,607.5
	z M839.7,611.1c4.5,1.4,8.7-0.7,8.7-0.7s-7.6,13.9-30.1,13.9c-23,0-32.6-12.8-32.6-12.8c2.1,0.3,17.8,4.3,29.7,3.2
	c12-1.1,17.1-4.9,19.6-7.8C834.9,607,835.2,609.8,839.7,611.1z M719.3,729.6c1,27.6-3,57.6-26,75.7c-12,8.6-29.2,11.8-43.8,12.2
	c-12.5,0.4-34.8-2.6-47.2-3c-33.7-1-49.5,27.3-52.6,57.5c-1.8,31.9,11.6,92.4,11.3,129.4h6.4c-3.3-43.3-17.5-90.1-14.7-127
	c1.3-17.1,6-34.7,19.3-46.5c8.9-7.8,19.4-10,30.8-9.7c12.3,0.3,34.5,3.3,46.9,2.9c14.3-0.4,32-3.6,43.9-12
	c24.6-18.1,28.8-49.7,27-78.4 M966.5,1001.4h-6.4c3.3-43.3,17.5-90.1,14.7-127c-1.3-17.1-6-34.7-19.3-46.5
	c-8.9-7.8-19.5-10-30.8-9.7c-12.3,0.3-34.5,3.3-46.9,2.9c-14.3-0.4-32-3.6-43.9-12c-25.6-18.7-29.3-51.7-27-81.2
	c0.4-0.4,0.8-0.7,1.2-1.1c-1.4,28.3,2.1,59.8,25.9,78.4c12,8.6,29.2,11.8,43.8,12.2c12.5,0.4,34.8-2.6,47.2-3
	c33.7-1,49.5,27.3,52.6,57.5C979.6,903.8,966.1,964.4,966.5,1001.4z"/>
<path d="M1263.7,0H389.2H0c0,0,150.6,59.5,148.5,143.3s58.4,181.1,154,190.1c44.3,6,95.5,2.6,116.4,16.7
	c61.3,41.5,26.2,89.4,21.1,101.2c-4.7,11-11,21.3-16.4,32c-5,9.7-9.2,19.8-12.4,30.2c-5.7,18.3-8.2,39.4,0.9,57.1
	c4.5,8.7,12.2,15.4,20.7,20c10.9,5.8,24.1,5.3,36,4.5c13.8-0.9,26.2-1.3,39.4,3.4c11.2,4,18.8,12.4,23.9,22.9
	c4.7,9.6,7.8,19.9,12.7,29.4c5.4,10.4,12.1,20.1,19.9,28.8c12.9,14.4,29.8,24.5,48.8,28.6c27.8,5.9,57.1-1.2,83.3-10.3
	c0.3-0.1,0.4-0.2,0.6-0.4c0.5-0.4,0.8-1.1,0.3-1.8c-18.9-27.8-23.1-64.1-21.9-96.8c0.5-12.9,0.9-26.9,7.3-38.5
	c4.7-8.7,13.1-13.6,22.5-15.8c26.2-6.1,49.4,11.3,75.2,9.5c10.5-0.7,21.9-3.1,31-8.5c1.9-1.1,3.7-2.4,5.5-3.8
	c2.2,9.3,7.8,18.3,12.6,25.8c9,14.1,20,27.1,21.3,44.5c1.4,18.6-3.4,37.8-9.1,55.4c-5.3,16.5-12.4,33.8-23.4,47.3
	c-0.1,0.1-0.2,0.3-0.3,0.5c-0.3,0.6-0.2,1.4,0.6,1.9c26.2,14.4,54.2,25.8,84,29.5c27.7,3.5,56.3-1.3,81.3-13.8
	c37.6-18.9,59.1-61.2,55.6-102.6c-0.9-10.4-3.5-20.5-7.5-30.1c-4.2-10.1-10.6-18.8-16.3-28c-11.8-19.3-21.6-41.1-23-64
	c-1.5-24.4,9.6-45.6,28.3-60.7c20.1-16.2,45-23.2,70-27.4c47.5-8,99-7.3,137.4-40.7c6.6-5.8,12.4-12.2,17.4-19.1
	c9.2-12.7,15.6-27.2,19.3-42.4c2.7-11.2,6.4-31,20.3-40.6c28.7-19.8,94.8-45,106.2-138.5C1407.6,14.4,1538.4,0,1538.4,0H1263.7z"/>
<path d="M892.2,1043.7c12.2-15.9,18.3-35.8,16.4-55.8c-0.7-7.5-2.4-14.2-5.3-19.7c-18.1-34.5-63-38.8-105.2-11.9
	c-13.6,8.7-25.2,20-34.4,32.7c-9.3-12.6-20.8-24-34.4-32.7c-42.2-26.9-87.2-22.6-105.2,11.9c-2.9,5.5-4.6,12.2-5.3,19.7
	c-1.9,19.9,4.2,39.8,16.4,55.8l0.7,0.9c64.4,84.4,191.4,84.4,255.8,0L892.2,1043.7z"/>
</svg>
